<mxfile host="app.diagrams.net" modified="2024-01-29T06:33:48.988Z" agent="Mozilla/5.0 (Windows NT 10.0; Win64; x64) AppleWebKit/537.36 (KHTML, like Gecko) Chrome/120.0.0.0 Safari/537.36" etag="ZLJnSkcWtknWwc3BrgDT" version="23.0.2" type="github">
  <diagram name="Page-1" id="N2TlqoESqoMMtG1WBgRW">
    <mxGraphModel dx="731" dy="460" grid="1" gridSize="10" guides="1" tooltips="1" connect="1" arrows="1" fold="1" page="1" pageScale="1" pageWidth="850" pageHeight="1100" math="0" shadow="0">
      <root>
        <mxCell id="0" />
        <mxCell id="1" parent="0" />
        <mxCell id="sLHfvILyPjPm50nmOtC4-5" value="" style="edgeStyle=orthogonalEdgeStyle;rounded=0;orthogonalLoop=1;jettySize=auto;html=1;" edge="1" parent="1" source="sLHfvILyPjPm50nmOtC4-1" target="sLHfvILyPjPm50nmOtC4-2">
          <mxGeometry relative="1" as="geometry" />
        </mxCell>
        <mxCell id="sLHfvILyPjPm50nmOtC4-1" value="SoringBoot" style="rounded=0;whiteSpace=wrap;html=1;fillColor=#d5e8d4;strokeColor=#82b366;" vertex="1" parent="1">
          <mxGeometry x="70" y="20" width="120" height="60" as="geometry" />
        </mxCell>
        <mxCell id="sLHfvILyPjPm50nmOtC4-20" style="edgeStyle=orthogonalEdgeStyle;rounded=0;orthogonalLoop=1;jettySize=auto;html=1;" edge="1" parent="1" source="sLHfvILyPjPm50nmOtC4-2" target="sLHfvILyPjPm50nmOtC4-19">
          <mxGeometry relative="1" as="geometry" />
        </mxCell>
        <mxCell id="sLHfvILyPjPm50nmOtC4-2" value="Configuration" style="rounded=0;whiteSpace=wrap;html=1;" vertex="1" parent="1">
          <mxGeometry x="70" y="120" width="120" height="60" as="geometry" />
        </mxCell>
        <mxCell id="sLHfvILyPjPm50nmOtC4-7" value="" style="edgeStyle=orthogonalEdgeStyle;rounded=0;orthogonalLoop=1;jettySize=auto;html=1;" edge="1" parent="1" source="sLHfvILyPjPm50nmOtC4-3" target="sLHfvILyPjPm50nmOtC4-4">
          <mxGeometry relative="1" as="geometry" />
        </mxCell>
        <mxCell id="sLHfvILyPjPm50nmOtC4-21" value="" style="edgeStyle=orthogonalEdgeStyle;rounded=0;orthogonalLoop=1;jettySize=auto;html=1;" edge="1" parent="1" source="sLHfvILyPjPm50nmOtC4-3" target="sLHfvILyPjPm50nmOtC4-2">
          <mxGeometry relative="1" as="geometry" />
        </mxCell>
        <mxCell id="sLHfvILyPjPm50nmOtC4-3" value="Controller" style="rounded=0;whiteSpace=wrap;html=1;fillColor=#f8cecc;strokeColor=#b85450;" vertex="1" parent="1">
          <mxGeometry x="70" y="220" width="120" height="60" as="geometry" />
        </mxCell>
        <mxCell id="sLHfvILyPjPm50nmOtC4-4" value="Repoirory" style="rounded=0;whiteSpace=wrap;html=1;" vertex="1" parent="1">
          <mxGeometry x="70" y="310" width="120" height="60" as="geometry" />
        </mxCell>
        <mxCell id="sLHfvILyPjPm50nmOtC4-17" value="" style="edgeStyle=orthogonalEdgeStyle;rounded=0;orthogonalLoop=1;jettySize=auto;html=1;" edge="1" parent="1" source="sLHfvILyPjPm50nmOtC4-8" target="sLHfvILyPjPm50nmOtC4-9">
          <mxGeometry relative="1" as="geometry" />
        </mxCell>
        <mxCell id="sLHfvILyPjPm50nmOtC4-8" value="User" style="rounded=0;whiteSpace=wrap;html=1;" vertex="1" parent="1">
          <mxGeometry x="350" y="130" width="120" height="50" as="geometry" />
        </mxCell>
        <mxCell id="sLHfvILyPjPm50nmOtC4-16" value="" style="edgeStyle=orthogonalEdgeStyle;rounded=0;orthogonalLoop=1;jettySize=auto;html=1;" edge="1" parent="1" source="sLHfvILyPjPm50nmOtC4-9" target="sLHfvILyPjPm50nmOtC4-10">
          <mxGeometry relative="1" as="geometry" />
        </mxCell>
        <mxCell id="sLHfvILyPjPm50nmOtC4-9" value="User Group" style="rounded=0;whiteSpace=wrap;html=1;" vertex="1" parent="1">
          <mxGeometry x="350" y="220" width="120" height="50" as="geometry" />
        </mxCell>
        <mxCell id="sLHfvILyPjPm50nmOtC4-10" value="policy&amp;nbsp;&lt;br&gt;AWS DynmaoDB full access" style="rounded=0;whiteSpace=wrap;html=1;" vertex="1" parent="1">
          <mxGeometry x="350" y="310" width="120" height="50" as="geometry" />
        </mxCell>
        <mxCell id="sLHfvILyPjPm50nmOtC4-11" value="DynamoDB tables&lt;br&gt;partitionKey" style="rounded=0;whiteSpace=wrap;html=1;" vertex="1" parent="1">
          <mxGeometry x="560" y="130" width="120" height="60" as="geometry" />
        </mxCell>
        <mxCell id="sLHfvILyPjPm50nmOtC4-13" style="edgeStyle=orthogonalEdgeStyle;rounded=0;orthogonalLoop=1;jettySize=auto;html=1;entryX=0.5;entryY=0;entryDx=0;entryDy=0;" edge="1" parent="1" source="sLHfvILyPjPm50nmOtC4-12" target="sLHfvILyPjPm50nmOtC4-8">
          <mxGeometry relative="1" as="geometry" />
        </mxCell>
        <mxCell id="sLHfvILyPjPm50nmOtC4-12" value="AWS Console" style="rounded=0;whiteSpace=wrap;html=1;fillColor=#fff2cc;strokeColor=#d6b656;" vertex="1" parent="1">
          <mxGeometry x="460" y="20" width="120" height="60" as="geometry" />
        </mxCell>
        <mxCell id="sLHfvILyPjPm50nmOtC4-18" style="edgeStyle=orthogonalEdgeStyle;rounded=0;orthogonalLoop=1;jettySize=auto;html=1;entryX=0.586;entryY=-0.011;entryDx=0;entryDy=0;entryPerimeter=0;" edge="1" parent="1" source="sLHfvILyPjPm50nmOtC4-12" target="sLHfvILyPjPm50nmOtC4-11">
          <mxGeometry relative="1" as="geometry" />
        </mxCell>
        <mxCell id="sLHfvILyPjPm50nmOtC4-19" value="Access Key&lt;br&gt;Secrets Key" style="ellipse;whiteSpace=wrap;html=1;fillColor=#dae8fc;strokeColor=#6c8ebf;" vertex="1" parent="1">
          <mxGeometry x="290" y="110" width="90" height="50" as="geometry" />
        </mxCell>
      </root>
    </mxGraphModel>
  </diagram>
</mxfile>
